<svg xmlns="http://www.w3.org/2000/svg" width="27.738" height="24.662" viewBox="0 0 27.738 24.662">
  <path id="Icon_awesome-leaf" data-name="Icon awesome-leaf" d="M26.307.467A.749.749,0,0,0,24.944.409a8.259,8.259,0,0,1-7.219,4.214H13.871A9.249,9.249,0,0,0,4.625,13.87a9.523,9.523,0,0,0,.072.987,23.042,23.042,0,0,1,13.8-4.07.771.771,0,0,1,0,1.541C6.387,12.329,1.253,19.75.117,22.539a1.543,1.543,0,0,0,2.856,1.17,12.67,12.67,0,0,1,3.463-4.363,9.226,9.226,0,0,0,8.423,3.718c7.561-.549,12.883-7.33,12.883-15.633A17.513,17.513,0,0,0,26.307.467Z" transform="translate(-0.004 0.002)" fill="#507d66"/>
</svg>
