<?xml version="1.0" encoding="UTF-8"?><svg id="Layer_2" xmlns="http://www.w3.org/2000/svg" xmlns:xlink="http://www.w3.org/1999/xlink" viewBox="0 0 672.79 298.46"><defs><style>.cls-1{fill:#fff;}.cls-2{fill:#4fa44d;}.cls-3{isolation:isolate;}</style></defs><image class="cls-3" width="674" height="299" transform="" xlink:href="bilag/CB5FE8C624295960.png"/><g id="Layer_2-2"><g><path class="cls-1" d="m639.09,90.31c-4.9,15.4-16.5,20.7-31.4,21.1-14.8.4-28.3-3.4-40.2-13.6,4.2-5.1,8.3-10,12.5-15.2,7.7,5.7,15.9,9.7,25.4,9.6,4.2,0,9.6.9,10.5-5,.8-5.7-4.8-6-8.5-7.2-6.1-2-12.6-3.2-18.7-5.3-12-4.1-17.4-11.2-17.4-22.1s6.8-20.5,18.1-24.2c2.5-.8,5.1-1.4,7.7-2.1h12c10.1,1.5,19.7,4,27.7,11.3-3.8,5.4-7.5,10.5-11.2,15.8-1.4-.9-2.5-1.6-3.7-2.2-6.6-3.7-13.6-6.3-21.4-5.6-3,.3-5.7,1.4-6.2,4.8-.5,3.2,1.9,4.8,4.5,5.8,2.3.9,4.8,1.5,7.1,2.2,5.4,1.6,11,2.8,16.3,4.7,8.4,3,14.8,8.1,16.8,17.4l.1,9.8h0Z"/><path class="cls-1" d="m402.39,201.21c8.1-26.1-.1-60.7-32.3-80.3-9-6.3-30.9-7.7-33.8-7.5-10.7.7-21.7,2.1-31.5,6.5-1.8.8-3.5,1.7-4.8,2.5-29.7,19.6-38.8,53.4-29,81.8,9.6,27.9,36.3,46.7,66.3,46.4,30-.3,55.9-20,65.1-49.4h0Zm-69.8-1.6c4.5,7,3.9,12.9-1.9,18.9-5.7,5.9-12.7,6.8-19.5,2.6-18.1-11.2-26.2-33.8-19.5-54.6,6.3-19.7,26.3-33.4,46.8-32.1,22,1.4,39.9,16.8,43.8,37.9,3.8,20.3-5.5,40.6-23,50.1-9.7,5.2-15.7,1.7-15.3-9.3.2-6.8-1.3-12.7-6.4-17.6-5.4-5.1-5.4-11.4-2-18.6-7.2,7.6-8,15.1-3,22.7h0Z"/><path class="cls-1" d="m359.29,105.61c21.8-8.2,32.3-30.4,24.5-52.4-5.9-16.7-19-24.2-35.8-26.1-12.8-1.4-27.3-.7-40.1-.7-.4,0,.8.6,0,8v73.1c38,2.9,50.7-1.6,51.4-1.9h0Zm-28.3-17.2v-41.3c7.2-.4,14.3-1.1,21,2.1,7.6,3.5,11.6,11.3,10.7,21.2-.8,8.7-6.3,15.3-14.9,17.2-5.3,1.3-10.8,1.3-16.8.8h0Z"/><path class="cls-1" d="m293.69,108.21c-5.8-8.4-13.1-19.7-18.7-27.9,1.1-1.7,2.8-2.1,4.2-3,17-10.7,16.6-36.8-.8-46.7-5.3-3-11.2-4.3-17.3-4.3-13.2-.2-26.4-.3-39.6-.3-1,0-2,0-2.8.8-1,9.4-.6,77.6.6,81.2h22.2v-24.2c3.5-.6,6.6-.5,9.9-.1,5.5,8.2,11.1,16.5,16.8,25,0,0,18.7-.1,25.5-.5Zm-52.2-42.6v-19.8c6.4.1,12.6-.5,18.9.5,4.8.8,7.8,3.5,8,8.6.2,5.4-2.3,8.9-7.6,10.1-6.2,1.3-12.5.2-19.3.6h0Z"/><path class="cls-1" d="m479.29,27.91h21.1c10.9,14,21.8,28,33.6,43.1V28.01h22.1v81.7h-19.8c-11.1-14.3-22.5-28.9-34.8-44.7v44.8h-22.2V27.91h0Z"/><path class="cls-1" d="m459.69,59.61v17.9h-38.7c-1.1,4.4-.4,8.5-.5,13.1h43.7v19.2h-65.9V28.11h65.3v19h-42.7c-.9,4.2-.5,8.1-.3,12.5h39.1Z"/><path class="cls-1" d="m137.69,109.81V28.11h65.3v19h-42.6v12.2h38.5v18.1h-38.4v13.1h43.5v19.2l-66.3.1h0Z"/><path class="cls-1" d="m569.09,182.71v19.4h-65.9v-81.6h65.1v18.7h-42.5c-1.2,4.3-.3,8.2-.7,12.5h39.1v17.9h-38.7v13.1h43.6Z"/><path class="cls-1" d="m236.69,120.31h26.9c-10.5,12-20.4,23.3-30.7,35,10.5,15.4,21,30.8,31.9,46.7h-27.3c-6.7-9.9-13.5-19.9-20.1-29.6-4.8,2.6-8.1,3.8-8.2,4.2-.5,6.5-.8,18.4-.9,25.3h-22.1v-81.5h22.1v33c10.4-11.8,19.4-22.5,28.4-33.1h0Z"/><path class="cls-1" d="m169.79,129.91c-3.6,5.1-7.2,10.3-11,15.7-6-3.8-12.1-6.7-18.9-7.7-6.8-1-12.1.7-12.2,4.5-.2,6,5.1,6.1,9.1,7.3,5.4,1.7,10.9,2.9,16.3,4.5,12.8,3.8,19.2,11.3,19.2,22.3.1,12.4-6.6,22-19.4,25.2-18.2,4.5-35.4,1.6-50.5-10.3-.5-.4-.9-.9-1.6-1.7,4.1-4.9,8.1-9.7,12.3-14.8,6,4,11.9,7.6,18.9,8.9,4,.7,8,1.1,11.9.3,2.5-.5,4.8-1.6,5.2-4.6s-1.6-4.5-4-5.7c-4.6-2.1-9.6-2.7-14.4-4.1-3.7-1.1-7.4-2.1-10.9-3.5-8.9-3.5-14.9-9.5-15.4-19.6s3.4-18.1,12.3-23.4c14.5-8.5,40.9-5.3,53.1,6.7h0Z"/><path class="cls-1" d="m466.99,120.21h24.9c-11.1,27.7-22,54.9-33,82.3h-21.4c-10.9-27.1-21.8-54.3-33-82.1h25.4c6,16.6,12,33.4,18.5,51.4,6.6-18,12.5-34.7,18.6-51.6h0Z"/><path class="cls-1" d="m39.29,28.01h25.5c6.1,17,12.1,33.8,18.6,51.7,6.4-17.8,12.4-34.5,18.5-51.5h25c-11,27.5-22,54.7-33,82.2h-21.5c-10.9-27.1-21.9-54.4-33.1-82.4h0Z"/><path class="cls-2" d="m344.09,201.11c-2.6-4.7-7.2-7.6-9-12.7-1.7-4.9,2.6-9.1,2.2-14.3-9.3,4.1-13.1,14.8-5.7,27.9-10.1-1.9-18.8-6.1-23.5-15.2-4.8-9.2-3.6-18.2,2.8-26.1,11.7-14.4,36.2-15.1,48.9-1.6,11.4,12.1,8.3,30.3-6.8,38.9-2.6,1.5-5.3,2.8-8.9,3.1h0Z"/></g></g></svg>