<?xml version="1.0" encoding="utf-8"?>
<!-- Generator: Adobe Illustrator 27.1.1, SVG Export Plug-In . SVG Version: 6.00 Build 0)  -->
<svg version="1.1" id="Layer_2_00000052806866429314686470000012236898025833705123_"
	 xmlns="http://www.w3.org/2000/svg" xmlns:xlink="http://www.w3.org/1999/xlink" x="0px" y="0px" viewBox="0 0 599.9 224.6"
	 style="enable-background:new 0 0 599.9 224.6;" xml:space="preserve">
<style type="text/css">
	.st0{fill:#FFFFFF;}
	.st1{fill:#4FA44D;}
</style>
<g id="Layer_2-2">
	<g>
		<path class="st0" d="M599.9,64.3C595,79.7,583.3,85,568.4,85.4c-14.8,0.4-28.3-3.4-40.2-13.6c4.2-5.1,8.3-10,12.5-15.2
			c7.7,5.7,15.9,9.7,25.4,9.6c4.2,0,9.6,0.9,10.5-5c0.8-5.7-4.8-6-8.5-7.2c-6.1-2-12.6-3.2-18.7-5.3c-12-4.1-17.4-11.2-17.4-22.1
			c0-11.4,6.8-20.5,18.1-24.2c2.5-0.8,5.1-1.4,7.7-2.1c4,0,8,0,12,0c10.1,1.6,19.7,4,27.7,11.3c-3.8,5.4-7.4,10.5-11.2,15.8
			c-1.4-0.9-2.5-1.6-3.7-2.2c-6.6-3.7-13.6-6.3-21.4-5.6c-3,0.3-5.7,1.4-6.2,4.8c-0.5,3.2,1.9,4.8,4.5,5.8c2.3,0.9,4.8,1.5,7.1,2.2
			c5.4,1.5,11,2.8,16.3,4.7c8.4,3,14.8,8.1,16.8,17.4V64.3z"/>
		<path class="st0" d="M363.1,175.2c8.1-26.1-0.1-60.7-32.3-80.3c-9-6.3-30.9-7.7-33.8-7.5c-10.7,0.7-21.7,2.2-31.5,6.5
			c-1.8,0.8-3.5,1.7-4.8,2.5c-29.7,19.6-38.8,53.4-29,81.8c9.6,27.9,36.3,46.7,66.3,46.4C328,224.3,354,204.6,363.1,175.2
			L363.1,175.2z M293.3,173.6c4.5,7,3.9,12.9-1.9,18.9c-5.7,5.9-12.7,6.8-19.5,2.6c-18.1-11.2-26.2-33.8-19.5-54.6
			c6.3-19.7,26.3-33.4,46.8-32.1c22,1.4,39.9,16.8,43.8,37.9c3.8,20.3-5.5,40.6-23,50.1c-9.7,5.2-15.7,1.7-15.3-9.3
			c0.2-6.8-1.3-12.7-6.4-17.6c-5.4-5.1-5.4-11.4-2-18.6C289.1,158.5,288.4,166,293.3,173.6L293.3,173.6z"/>
		<path class="st0" d="M320.1,79.6c21.8-8.2,32.3-30.4,24.5-52.4c-5.9-16.7-19-24.2-35.8-26.1c-12.8-1.4-27.3-0.7-40.1-0.7
			c-0.4,0,0.8,0.6,0,8v73.1C306.7,84.4,319.3,79.9,320.1,79.6L320.1,79.6z M291.7,62.4V21.1c7.2-0.4,14.3-1.1,21,2
			c7.6,3.5,11.6,11.3,10.7,21.2c-0.8,8.7-6.3,15.3-14.9,17.2C303.2,62.9,297.7,62.9,291.7,62.4L291.7,62.4z"/>
		<path class="st0" d="M254.4,82.2c-5.8-8.4-13.1-19.7-18.7-28c1.1-1.7,2.8-2.1,4.2-3c17-10.7,16.6-36.8-0.8-46.7
			c-5.3-3-11.2-4.3-17.3-4.3C208.6,0.1,195.4,0,182.3,0c-1,0-2-0.1-2.8,0.9c-1,9.4-0.5,77.6,0.6,81.2h22.1V57.8
			c3.5-0.6,6.6-0.5,9.9-0.1c5.5,8.3,11.1,16.5,16.8,25C228.9,82.7,247.6,82.6,254.4,82.2z M202.3,39.6V19.8
			c6.4,0.1,12.6-0.5,18.9,0.5c4.8,0.8,7.8,3.5,8,8.6c0.2,5.4-2.3,8.9-7.6,10.1C215.3,40.3,209,39.2,202.3,39.6L202.3,39.6z"/>
		<path class="st0" d="M440,1.9c7.2,0,14,0,21.1,0C472,15.9,483,30,494.7,45c0-15,0-28.8,0-43c7.7,0,14.7,0,22.1,0
			c0,27.1,0,54.2,0,81.7c-6.4,0-12.8,0-19.8,0c-11.1-14.3-22.5-28.9-34.8-44.7c0,15.7,0,30.1,0,44.8c-7.8,0-14.8,0-22.2,0
			C440,56.6,440,29.5,440,1.9L440,1.9z"/>
		<path class="st0" d="M420.4,33.5c0,6.3,0,11.9,0,17.9c-13,0-25.8,0-38.7,0c-1.1,4.4-0.4,8.5-0.5,13.1c14.6,0,29,0,43.7,0
			c0,6.6,0,12.7,0,19.2c-21.9,0-43.7,0-65.9,0c0-27.2,0-54.3,0-81.7c21.7,0,43.3,0,65.3,0v19c-14.2,0-28.3,0-42.7,0
			c-0.9,4.2-0.5,8.1-0.3,12.4C394.3,33.5,407,33.5,420.4,33.5L420.4,33.5z"/>
		<path class="st0" d="M98.4,83.8c0-27.4,0-54.3,0-81.7c21.8,0,43.4,0,65.3,0v19c-14.1,0-28.2,0-42.6,0c0,4.2,0,8,0,12.2
			c12.6,0,25.4,0,38.5,0c0,6.2,0,11.9,0,18.1c-12.7,0-25.4,0-38.5,0c0,4.5,0,8.6,0,13.1c14.4,0,28.8,0,43.5,0c0,6.6,0,12.7,0,19.2
			C142.7,83.8,120.9,83.8,98.4,83.8L98.4,83.8z"/>
		<path class="st0" d="M529.8,156.7c0,7,0,13.1,0,19.4c-22,0-43.7,0-65.9,0c0-27.1,0-54.2,0-81.6c21.5,0,43.1,0,65.1,0v18.7
			c-14.2,0-28.3,0-42.5,0c-1.2,4.3-0.3,8.2-0.7,12.5c13.2,0,26,0,39.1,0c0,6.1,0,11.8,0,17.9c-12.8,0-25.5,0-38.6,0
			c0,4.5,0,8.6,0,13.1C500.6,156.7,515,156.7,529.8,156.7z"/>
		<path class="st0" d="M197.5,94.3c8.8,0,17.4,0,26.9,0c-10.5,12-20.4,23.3-30.7,35c10.5,15.4,21,30.8,31.9,46.7
			c-9.6,0-18.4,0-27.3,0c-6.7-9.9-13.5-19.9-20.1-29.6c-4.8,2.6-8.1,3.8-8.2,4.2c-0.5,6.5-0.8,18.4-0.9,25.3c-7.3,0-14.5,0-22,0
			c0-27,0-54.1,0-81.5c7.1,0,14.3,0,22.1,0c0,10.5,0,21,0,33C179.4,115.6,188.5,104.9,197.5,94.3L197.5,94.3z"/>
		<path class="st0" d="M130.5,103.9c-3.6,5.1-7.2,10.3-11,15.7c-6-3.8-12.1-6.7-19-7.7c-6.8-1-12.1,0.7-12.2,4.5
			c-0.2,6,5.1,6.1,9.1,7.3c5.4,1.7,10.9,2.9,16.4,4.5c12.8,3.8,19.2,11.3,19.2,22.3c0.1,12.4-6.6,22-19.4,25.2
			c-18.2,4.5-35.4,1.6-50.5-10.3c-0.5-0.4-0.9-0.9-1.6-1.7c4.1-4.9,8.1-9.7,12.3-14.8c6,4,11.9,7.6,18.9,8.9c4,0.7,8,1.1,11.9,0.3
			c2.5-0.5,4.8-1.6,5.2-4.6c0.4-3-1.6-4.5-4-5.7c-4.6-2.1-9.6-2.7-14.4-4.1c-3.7-1.1-7.4-2.1-10.9-3.5c-8.9-3.5-14.9-9.5-15.4-19.6
			c-0.5-10.2,3.4-18.1,12.3-23.4C91.9,88.7,118.3,91.9,130.5,103.9L130.5,103.9z"/>
		<path class="st0" d="M427.8,94.2c8.4,0,16.2,0,24.9,0c-11.1,27.7-22,54.8-33,82.3c-7,0-14,0-21.4,0c-10.9-27.1-21.8-54.3-33-82.1
			c8.8,0,16.8,0,25.4,0c6,16.6,12,33.4,18.5,51.4C415.7,127.8,421.7,111.1,427.8,94.2L427.8,94.2z"/>
		<path class="st0" d="M0,2c9,0,17.1,0,25.5,0C31.6,19,37.6,35.8,44,53.7c6.4-17.8,12.4-34.5,18.5-51.5c8,0,16,0,25,0
			c-11,27.5-22,54.7-33,82.2c-7,0-13.9,0-21.4,0C22.2,57.3,11.3,30,0,2L0,2z"/>
		<path class="st1" d="M304.9,175.1c-2.6-4.7-7.2-7.6-9-12.7c-1.7-4.9,2.6-9.1,2.2-14.3c-9.3,4.1-13.1,14.8-5.7,27.9
			c-10.1-1.9-18.8-6.1-23.5-15.2c-4.8-9.2-3.6-18.2,2.8-26.1c11.7-14.4,36.2-15.1,48.9-1.6c11.4,12.1,8.3,30.3-6.8,38.9
			C311.2,173.5,308.5,174.8,304.9,175.1L304.9,175.1z"/>
	</g>
</g>
</svg>
