<svg id="Group_220" data-name="Group 220" xmlns="http://www.w3.org/2000/svg" xmlns:xlink="http://www.w3.org/1999/xlink" width="245.09" height="97.664" viewBox="0 0 245.09 97.664">
  <defs>
    <clipPath id="clip-path">
      <rect id="Rectangle_301" data-name="Rectangle 301" width="94.476" height="239.809" fill="#1b241b"/>
    </clipPath>
    <clipPath id="clip-path-2">
      <rect id="Rectangle_294" data-name="Rectangle 294" width="91.753" height="245.09" fill="none"/>
    </clipPath>
  </defs>
  <g id="Group_215" data-name="Group 215" transform="translate(241.667 3.187) rotate(90)">
    <g id="Group_212" data-name="Group 212" clip-path="url(#clip-path)">
      <path id="Path_201" data-name="Path 201" d="M26.924,0c6.472,1.949,8.707,6.615,8.869,12.567A21.95,21.95,0,0,1,30.08,28.62L23.7,23.6c2.4-3.086,4.066-6.345,4.055-10.143,0-1.67.365-3.849-2.1-4.18-2.406-.323-2.533,1.92-3.045,3.4-.852,2.455-1.36,5.02-2.236,7.466-1.721,4.809-4.7,6.96-9.3,6.944A10.466,10.466,0,0,1,.9,19.85C.553,18.845.3,17.811,0,16.79v-4.8C.654,7.971,1.689,4.1,4.749.916l6.643,4.465c-.358.568-.656,1.011-.924,1.469C8.916,9.5,7.817,12.279,8.1,15.389c.111,1.209.594,2.271,2,2.466,1.359.189,2.01-.768,2.428-1.8.375-.926.627-1.9.915-2.854.653-2.17,1.178-4.381,1.968-6.5,1.246-3.35,3.4-5.912,7.3-6.7Z" transform="translate(0.132)" fill="#1b241b"/>
      <path id="Path_202" data-name="Path 202" d="M36.969,1.172a30.126,30.126,0,0,0-33.8,12.91C.5,17.7-.069,26.428.006,27.591A34.943,34.943,0,0,0,2.739,40.17a12.946,12.946,0,0,0,1.066,1.918A30.257,30.257,0,0,0,38.234,53.669c11.75-3.858,19.634-14.515,19.505-26.489S49.333,4.837,36.969,1.172m-.655,27.914c2.96-1.811,5.442-1.571,7.958.77,2.459,2.288,2.849,5.07,1.089,7.774-4.711,7.239-14.223,10.471-22.955,7.8-8.291-2.536-14.054-10.509-13.519-18.7A19.059,19.059,0,0,1,24.813,9.219c8.556-1.525,17.082,2.2,21.063,9.2,2.2,3.869.707,6.274-3.9,6.134a9.411,9.411,0,0,0-7.42,2.574c-2.164,2.158-4.779,2.173-7.839.807,3.239,2.832,6.368,3.125,9.6,1.15" transform="translate(36.735 93.465)" fill="#1b241b"/>
      <path id="Path_203" data-name="Path 203" d="M33.383,10.834C29.942,2.11,20.6-2.093,11.355,1.024,4.313,3.4,1.151,8.639.374,15.324-.219,20.426.063,26.241.1,31.367a12.212,12.212,0,0,1,3.366,0H34.219c1.2-15.175-.715-20.228-.835-20.533M26.16,22.164H8.8c-.172-2.893-.45-5.707.864-8.415,1.483-3.058,4.744-4.63,8.934-4.28a7.724,7.724,0,0,1,7.251,5.96,20.449,20.449,0,0,1,.314,6.734" transform="translate(0.097 101.015)" fill="#1b241b"/>
      <path id="Path_204" data-name="Path 204" d="M34.58,0c-3.552,2.311-8.273,5.223-11.758,7.49-.726-.436-.891-1.121-1.256-1.673C17.056-.993,6.073-.817,1.911,6.152a13.459,13.459,0,0,0-1.832,6.9C.031,18.313.022,23.575,0,28.838a1.2,1.2,0,0,0,.356,1.1c3.968.4,32.626.218,34.15-.223V20.873H24.313a12.457,12.457,0,0,1-.041-3.972l10.534-6.7S34.748,2.736,34.58,0M16.653,20.851H8.326a51.12,51.12,0,0,1,.207-7.538,3.5,3.5,0,0,1,3.623-3.2c2.253-.1,3.762.911,4.235,3.042.551,2.482.114,5,.263,7.7" transform="translate(0 138.094)" fill="#1b241b"/>
      <path id="Path_205" data-name="Path 205" d="M0,30.713V22.275L18.123,8.852H.053V0H34.417V7.922l-18.8,13.928H34.471v8.864Z" transform="translate(0.817 33.2)" fill="#1b241b"/>
      <path id="Path_206" data-name="Path 206" d="M13.235,1.8h7.527V17.285c1.869.461,3.594.168,5.513.2V0h8.078V26.331H0V.243H8V17.313a20.565,20.565,0,0,0,5.239.124Z" transform="translate(0.878 69.935)" fill="#1b241b"/>
      <path id="Path_207" data-name="Path 207" d="M34.349,26.473H0V.353H7.992V17.386h5.144V1.987h7.61V17.38h5.528V0h8.075Z" transform="translate(0.893 173.982)" fill="#1b241b"/>
      <path id="Path_208" data-name="Path 208" d="M26.192,0h8.156V26.331H0V.3H7.872V17.285c1.8.491,3.452.125,5.252.286V1.935h7.551V17.388h5.517Z" transform="translate(39.741 28.005)" fill="#1b241b"/>
      <path id="Path_209" data-name="Path 209" d="M0,11.267V.508l14.73,12.26L34.393,0V10.921L21.92,18.943a33.379,33.379,0,0,0,1.773,3.271c2.753.217,7.738.328,10.647.356v8.814H.054V22.538h13.9L0,11.267" transform="translate(39.682 149.592)" fill="#1b241b"/>
      <path id="Path_210" data-name="Path 210" d="M4.816.986l6.613,4.4a18.539,18.539,0,0,0-3.253,7.574c-.423,2.735.283,4.847,1.889,4.9,2.522.078,2.571-2.056,3.085-3.629.705-2.158,1.225-4.371,1.907-6.536C16.671,2.564,19.8.025,24.445,0c5.2-.027,9.253,2.642,10.587,7.754A21.608,21.608,0,0,1,30.7,27.936a6.544,6.544,0,0,1-.72.624l-6.22-4.912c1.681-2.407,3.215-4.773,3.75-7.574a12.66,12.66,0,0,0,.138-4.767A2.216,2.216,0,0,0,25.7,9.229c-1.28-.152-1.911.63-2.385,1.585-.906,1.825-1.129,3.839-1.74,5.746-.47,1.463-.871,2.953-1.461,4.373-1.475,3.546-3.991,5.955-8.226,6.151-4.269.2-7.631-1.356-9.862-4.916C-1.572,16.425-.218,5.874,4.816.986" transform="translate(38.89 186.641)" fill="#1b241b"/>
      <path id="Path_211" data-name="Path 211" d="M0,9.967V0L34.608,13.2v8.573L.084,34.959V24.8l21.633-7.41L0,9.967" transform="translate(39.633 58.827)" fill="#1b241b"/>
      <path id="Path_212" data-name="Path 212" d="M0,34.984V24.8l21.76-7.424L.074,9.974V0L34.652,13.19v8.547L0,34.984" transform="translate(0.847 204.825)" fill="#1b241b"/>
      <path id="Path_213" data-name="Path 213" d="M21.734,9.023c-1.981,1.027-3.2,2.87-5.332,3.595-2.042.7-3.83-1.025-6.03-.87,1.737,3.705,6.147,4.58,11.751,2.556-.8,4.041-2.553,7.249-6.384,9.133A9.849,9.849,0,0,1,4.751,22.316C-1.319,17.646-1.6,7.854,4.074,2.753,9.163-1.819,16.81-.552,20.426,5.478a8.046,8.046,0,0,1,1.308,3.545" transform="translate(51.951 108.914)" fill="#1b241b"/>
    </g>
  </g>
  <g id="Group_216" data-name="Group 216">
    <g id="Group_214" data-name="Group 214" transform="translate(245.09 0) rotate(90)">
      <g id="Group_204" data-name="Group 204" clip-path="url(#clip-path-2)">
        <path id="Path_177" data-name="Path 177" d="M26.149,0c6.285,1.992,8.456,6.761,8.614,12.844A23.156,23.156,0,0,1,29.214,29.25l-6.192-5.129c2.329-3.154,3.949-6.485,3.939-10.366,0-1.707.354-3.934-2.036-4.272-2.337-.331-2.46,1.963-2.958,3.472-.828,2.509-1.321,5.13-2.171,7.631-1.672,4.915-4.568,7.113-9.03,7.1a10.216,10.216,0,0,1-9.889-7.4C.537,19.26.29,18.2,0,17.16v-4.9C.635,8.147,1.64,4.192,4.612.936L11.064,5.5c-.348.581-.637,1.033-.9,1.5a15.071,15.071,0,0,0-2.3,8.727c.107,1.236.577,2.321,1.943,2.52,1.32.194,1.952-.784,2.358-1.839.364-.946.609-1.939.888-2.917.635-2.217,1.144-4.478,1.911-6.647C16.179,3.422,18.273.8,22.063,0Z" transform="translate(0.128)" fill="#fff"/>
        <path id="Path_178" data-name="Path 178" d="M35.9,1.2C25.223-2.134,11.119,1.241,3.076,14.392.489,18.089-.067,27.01.006,28.2A37.307,37.307,0,0,0,2.66,41.054,13.444,13.444,0,0,0,3.7,43.015C11.7,55.137,25.532,58.859,37.132,54.851A28.187,28.187,0,0,0,35.9,1.2m-.637,28.529c2.875-1.85,5.285-1.605,7.729.787a5.972,5.972,0,0,1,1.057,7.945,19.171,19.171,0,1,1,.5-19.633c2.136,3.955.686,6.413-3.786,6.269a8.87,8.87,0,0,0-7.206,2.631c-2.1,2.205-4.641,2.221-7.613.825,3.145,2.894,6.184,3.194,9.32,1.175" transform="translate(35.677 95.523)" fill="#fff"/>
        <path id="Path_179" data-name="Path 179" d="M32.422,11.073A16.44,16.44,0,0,0,11.028,1.047C4.189,3.472,1.118,8.829.363,15.662c-.576,5.214-.3,11.157-.27,16.4a11.277,11.277,0,0,1,3.269,0H33.233c1.166-15.509-.694-20.674-.811-20.985M25.406,22.652H8.544c-.167-2.956-.437-5.833.839-8.6,1.44-3.125,4.607-4.732,8.677-4.374A7.611,7.611,0,0,1,25.1,15.769a21.971,21.971,0,0,1,.305,6.883" transform="translate(0.094 103.239)" fill="#fff"/>
        <path id="Path_180" data-name="Path 180" d="M33.584,0c-3.449,2.362-8.035,5.338-11.419,7.655-.7-.446-.865-1.146-1.22-1.71C16.565-1.015,5.9-.835,1.856,6.288A14.316,14.316,0,0,0,.077,13.339C.03,18.717.021,24.095,0,29.473A1.271,1.271,0,0,0,.346,30.6c3.853.408,31.686.223,33.166-.228V21.333h-9.9a13.39,13.39,0,0,1-.04-4.06L33.8,10.423S33.747,2.8,33.584,0M16.173,21.31H8.086a54.966,54.966,0,0,1,.2-7.7,3.462,3.462,0,0,1,3.518-3.273,3.636,3.636,0,0,1,4.113,3.109c.535,2.537.111,5.112.255,7.868" transform="translate(0 141.135)" fill="#fff"/>
        <path id="Path_181" data-name="Path 181" d="M0,31.39V22.765L17.6,9.047H.051V0H33.426V8.1L15.169,22.33H33.478V31.39Z" transform="translate(0.793 33.931)" fill="#fff"/>
        <path id="Path_182" data-name="Path 182" d="M12.853,1.843h7.31V17.666c1.815.471,3.49.172,5.354.2V0h7.845V26.911H0V.249H7.765V17.694a18.989,18.989,0,0,0,5.088.126Z" transform="translate(0.853 71.476)" fill="#fff"/>
        <path id="Path_183" data-name="Path 183" d="M33.359,27.056H0V.36H7.761V17.769h5V2.031h7.391V17.763h5.369V0h7.843Z" transform="translate(0.867 177.814)" fill="#fff"/>
        <path id="Path_184" data-name="Path 184" d="M25.437,0h7.921V26.911H0V.306H7.646v17.36c1.75.5,3.353.128,5.1.293V1.978H20.08V17.771h5.358Z" transform="translate(38.596 28.621)" fill="#fff"/>
        <path id="Path_185" data-name="Path 185" d="M0,11.515v-11l14.305,12.53L33.4,0V11.162l-12.114,8.2A34.685,34.685,0,0,0,23.011,22.7c2.674.222,7.515.335,10.341.364v9.009H.053v-9.04h13.5L0,11.515" transform="translate(38.538 152.887)" fill="#fff"/>
        <path id="Path_186" data-name="Path 186" d="M4.677,1.007l6.422,4.5A19.474,19.474,0,0,0,7.94,13.247c-.411,2.8.275,4.954,1.835,5,2.449.08,2.5-2.1,3-3.709.685-2.206,1.19-4.467,1.852-6.68C16.191,2.62,19.229.025,23.74,0c5.051-.028,8.986,2.7,10.282,7.925,1.847,7.441.634,14.455-4.211,20.626a6.462,6.462,0,0,1-.7.638l-6.041-5.02c1.632-2.46,3.122-4.878,3.642-7.74a13.6,13.6,0,0,0,.134-4.872c-.188-1.039-.654-1.969-1.886-2.123s-1.856.644-2.317,1.62c-.88,1.866-1.1,3.924-1.69,5.873-.456,1.5-.846,3.019-1.419,4.469-1.432,3.624-3.876,6.086-7.989,6.287a9.834,9.834,0,0,1-9.578-5.024C-1.526,16.787-.212,6,4.677,1.007" transform="translate(37.769 190.751)" fill="#fff"/>
        <path id="Path_187" data-name="Path 187" d="M0,10.187V0L33.611,13.486v8.762L.081,35.729V25.345L21.09,17.772,0,10.187" transform="translate(38.491 60.123)" fill="#fff"/>
        <path id="Path_188" data-name="Path 188" d="M0,35.754V25.348L21.133,17.76.071,10.194V0L33.654,13.48v8.735L0,35.754" transform="translate(0.822 209.336)" fill="#fff"/>
        <path id="Path_189" data-name="Path 189" d="M21.108,9.222C19.184,10.271,18,12.155,15.93,12.9c-1.983.71-3.719-1.048-5.856-.889,1.687,3.787,5.97,4.681,11.413,2.612-.777,4.13-2.479,7.409-6.2,9.334A9.187,9.187,0,0,1,4.614,22.807c-5.894-4.773-6.171-14.78-.657-19.994C8.9-1.859,16.325-.564,19.838,5.6a8.492,8.492,0,0,1,1.27,3.623" transform="translate(50.454 111.313)" fill="#51a44e"/>
      </g>
    </g>
  </g>
</svg>
